<svg width="100" height="100" viewBox="0 0 100 100" fill="none" xmlns="http://www.w3.org/2000/svg">
<circle cx="50" cy="50" r="50" fill="#166061"/>
<path d="M71.5265 30.0922C67.4342 28.1958 63.0758 26.7985 58.4845 26C57.9189 26.9981 57.2535 28.3622 56.821 29.4601C51.9635 28.7282 47.1393 28.7282 42.3817 29.4601C41.9159 28.3622 41.2505 26.9981 40.6849 26C36.0936 26.7985 31.7352 28.1958 27.6429 30.0922C19.3919 42.5354 17.1628 54.679 18.2607 66.6231C23.7503 70.7153 29.0403 73.1773 34.2637 74.8076C35.5613 73.0442 36.6925 71.1478 37.6906 69.1849C35.7942 68.4862 33.9976 67.5879 32.3008 66.5565C32.7666 66.2238 33.1991 65.8579 33.6316 65.5251C44.0452 70.3826 55.3238 70.3826 65.6044 65.5251C66.0369 65.8911 66.4694 66.2238 66.9352 66.5565C65.2384 67.5879 63.4085 68.4529 61.5454 69.1849C62.5435 71.1478 63.6747 73.0442 64.9722 74.8076C70.1957 73.1773 75.5189 70.7153 80.9753 66.6231C82.2728 52.7493 78.7462 40.7388 71.593 30.0922H71.5265ZM39.0879 59.3036C35.9605 59.3036 33.3987 56.4091 33.3987 52.8491C33.3987 49.2892 35.894 46.3947 39.0879 46.3947C42.2819 46.3947 44.8104 49.2892 44.7772 52.8491C44.7772 56.3758 42.2819 59.3036 39.0879 59.3036ZM60.0815 59.3036C56.9541 59.3036 54.3923 56.4091 54.3923 52.8491C54.3923 49.2892 56.8875 46.3947 60.0815 46.3947C63.2754 46.3947 65.804 49.2892 65.7707 52.8491C65.7707 56.3758 63.2754 59.3036 60.0815 59.3036Z" fill="#F1E041"/>
</svg>
