<svg width="100" height="100" viewBox="0 0 100 100" fill="none" xmlns="http://www.w3.org/2000/svg">
<circle cx="50" cy="50" r="50" fill="#166061"/>
<path d="M49.62 22.635C42.014 22.5577 34.6885 25.5035 29.2534 30.8249C23.8183 36.1464 20.7184 43.408 20.635 51.014C20.6643 57.0249 22.5979 62.8718 26.1581 67.715C29.7183 72.5582 34.7219 76.1484 40.4502 77.97C41.8995 78.2335 42.4265 77.364 42.4265 76.5998C42.4265 75.8357 42.4265 74.1493 42.4265 71.7778C34.3634 73.4905 32.6506 67.9834 32.6506 67.9834C32.1139 66.2546 30.9727 64.7767 29.4359 63.8201C26.8009 62.081 29.6467 62.1073 29.6467 62.1073C30.5575 62.2291 31.4289 62.5555 32.1956 63.062C32.9622 63.5686 33.6043 64.2421 34.0735 65.0322C34.8912 66.4501 36.233 67.4903 37.81 67.9289C39.387 68.3675 41.0731 68.1695 42.5055 67.3773C42.6528 65.9344 43.3063 64.5901 44.35 63.5829C37.9206 62.8715 31.175 60.4473 31.175 49.5647C31.1175 46.726 32.1664 43.9762 34.0999 41.8969C33.2193 39.4597 33.3233 36.7753 34.3897 34.4135C34.3897 34.4135 36.8403 33.6493 42.2947 37.312C47.0427 36.0468 52.0392 36.0468 56.7872 37.312C62.3207 33.6493 64.6922 34.4135 64.6922 34.4135C65.7586 36.7753 65.8626 39.4597 64.9821 41.8969C66.9604 43.9381 68.0662 46.6694 68.065 49.512C68.065 60.4209 61.2667 62.8188 54.89 63.5302C55.5882 64.2081 56.1276 65.0323 56.4693 65.9435C56.811 66.8548 56.9466 67.8304 56.8663 68.8002V76.5735C56.8663 76.5735 57.3933 78.2335 58.8425 77.9437C64.5545 76.1108 69.5413 72.5197 73.0905 67.6834C76.6396 62.847 78.5697 57.0128 78.605 51.014C78.5216 43.408 75.4217 36.1464 69.9866 30.8249C64.5516 25.5035 57.226 22.5577 49.62 22.635Z" fill="#F1E041"/>
</svg>
