<svg width="100" height="100" viewBox="0 0 100 100" fill="none" xmlns="http://www.w3.org/2000/svg">
<circle cx="50" cy="50" r="50" fill="#166061"/>
<path d="M64.2015 18H35.0387C25.6285 18 18 25.6285 18 35.0387V64.2013C18 73.6115 25.6285 81.24 35.0387 81.24H64.2013C73.6115 81.24 81.24 73.6115 81.24 64.2013V35.0387C81.2401 25.6285 73.6116 18 64.2015 18Z" stroke="#F1E041" stroke-width="2.70414" stroke-miterlimit="10"/>
<path d="M49.62 64.885C58.0505 64.885 64.8849 58.0507 64.8849 49.6201C64.8849 41.1895 58.0505 34.3552 49.62 34.3552C41.1894 34.3552 34.3551 41.1895 34.3551 49.6201C34.3551 58.0507 41.1894 64.885 49.62 64.885Z" stroke="#F1E041" stroke-width="2.70414" stroke-miterlimit="10"/>
<path d="M68.1558 34.3554C69.9623 34.3554 71.4268 32.8909 71.4268 31.0843C71.4268 29.2777 69.9623 27.8132 68.1558 27.8132C66.3492 27.8132 64.8847 29.2777 64.8847 31.0843C64.8847 32.8909 66.3492 34.3554 68.1558 34.3554Z" fill="#F1E041"/>
</svg>
