<svg width="252" height="251" viewBox="0 0 252 251" fill="none" xmlns="http://www.w3.org/2000/svg">
<path d="M126 56.2586C112.251 56.2586 98.8103 60.3196 87.3783 67.9279C75.9462 75.5362 67.036 86.3503 61.7744 99.0025C56.5129 111.655 55.1362 125.577 57.8185 139.008C60.5009 152.44 67.1217 164.777 76.8439 174.461C86.566 184.145 98.9528 190.739 112.438 193.411C125.923 196.083 139.9 194.711 152.603 189.471C165.306 184.23 176.163 175.355 183.801 163.968C191.44 152.582 195.517 139.195 195.517 125.5C195.496 107.142 188.166 89.5426 175.133 76.5618C162.101 63.5811 144.431 56.2793 126 56.2586ZM126 186.086C113.969 186.086 102.209 182.533 92.206 175.876C82.203 169.218 74.4065 159.756 69.8026 148.685C65.1987 137.615 63.9942 125.433 66.3412 113.68C68.6882 101.928 74.4815 91.1322 82.9884 82.6591C91.4953 74.186 102.334 68.4157 114.133 66.0779C125.933 63.7402 138.163 64.94 149.278 69.5256C160.392 74.1113 169.892 81.8768 176.576 91.8401C183.26 101.803 186.828 113.517 186.828 125.5C186.809 141.563 180.395 156.963 168.991 168.321C157.588 179.679 142.127 186.068 126 186.086ZM121.655 25.9655V4.32759C121.655 3.17984 122.113 2.0791 122.928 1.26752C123.743 0.455941 124.848 0 126 0C127.152 0 128.257 0.455941 129.072 1.26752C129.887 2.0791 130.345 3.17984 130.345 4.32759V25.9655C130.345 27.1133 129.887 28.214 129.072 29.0256C128.257 29.8372 127.152 30.2931 126 30.2931C124.848 30.2931 123.743 29.8372 122.928 29.0256C122.113 28.214 121.655 27.1133 121.655 25.9655ZM36.9045 42.8781C36.0918 42.066 35.6358 40.9659 35.6367 39.8192C35.6376 38.6726 36.0954 37.5732 36.9094 36.7625C37.7235 35.9517 38.8273 35.4959 39.9785 35.495C41.1297 35.4942 42.2342 35.9485 43.0494 36.7581L58.4107 52.0589C58.8151 52.4605 59.136 52.9377 59.3551 53.463C59.5741 53.9883 59.6871 54.5515 59.6875 55.1203C59.6878 55.6891 59.5756 56.2525 59.3572 56.778C59.1388 57.3036 58.8185 57.7812 58.4147 58.1834C58.0108 58.5856 57.5313 58.9045 57.0036 59.1219C56.4758 59.3394 55.9103 59.4511 55.3392 59.4506C54.7681 59.4501 54.2027 59.3375 53.6753 59.1192C53.1479 58.9009 52.669 58.5812 52.2658 58.1783L36.9045 42.8781ZM30.4138 125.5C30.4137 126.648 29.956 127.748 29.1412 128.56C28.3264 129.372 27.2213 129.828 26.069 129.828H4.34483C3.19251 129.828 2.08738 129.372 1.27257 128.56C0.457757 127.748 0 126.648 0 125.5C0 124.352 0.457757 123.252 1.27257 122.44C2.08738 121.628 3.19251 121.172 4.34483 121.172H26.069C27.2213 121.172 28.3264 121.628 29.1412 122.44C29.956 123.252 30.4137 124.352 30.4138 125.5ZM58.4107 192.822C58.8141 193.223 59.1341 193.7 59.3524 194.225C59.5708 194.75 59.6832 195.313 59.6832 195.881C59.6832 196.45 59.5708 197.012 59.3524 197.537C59.1341 198.062 58.8141 198.539 58.4107 198.941L43.0494 214.242C42.6462 214.645 42.1672 214.965 41.6398 215.183C41.1124 215.401 40.5469 215.514 39.9758 215.514C39.4047 215.515 38.839 215.403 38.3113 215.186C37.7835 214.968 37.304 214.649 36.9001 214.247C36.4962 213.845 36.176 213.367 35.9576 212.841C35.7392 212.316 35.627 211.752 35.6274 211.183C35.6278 210.615 35.7408 210.051 35.9599 209.526C36.1791 209.001 36.5001 208.524 36.9045 208.122L52.2658 192.822C52.6692 192.42 53.1482 192.101 53.6754 191.883C54.2025 191.666 54.7676 191.554 55.3382 191.554C55.9088 191.554 56.4739 191.666 57.0011 191.883C57.5282 192.101 58.0072 192.42 58.4107 192.822ZM130.345 225.034V246.672C130.345 247.82 129.887 248.921 129.072 249.732C128.257 250.544 127.152 251 126 251C124.848 251 123.743 250.544 122.928 249.732C122.113 248.921 121.655 247.82 121.655 246.672V225.034C121.655 223.887 122.113 222.786 122.928 221.974C123.743 221.163 124.848 220.707 126 220.707C127.152 220.707 128.257 221.163 129.072 221.974C129.887 222.786 130.345 223.887 130.345 225.034ZM215.095 208.122C215.5 208.524 215.821 209.001 216.04 209.526C216.259 210.051 216.372 210.615 216.373 211.183C216.373 211.752 216.261 212.316 216.042 212.841C215.824 213.367 215.504 213.845 215.1 214.247C214.696 214.649 214.216 214.968 213.689 215.186C213.161 215.403 212.595 215.515 212.024 215.514C211.453 215.514 210.888 215.401 210.36 215.183C209.833 214.965 209.354 214.645 208.951 214.242L193.589 198.941C192.777 198.129 192.321 197.029 192.322 195.882C192.322 194.736 192.78 193.636 193.594 192.826C194.408 192.015 195.512 191.559 196.663 191.558C197.815 191.558 198.919 192.012 199.734 192.822L215.095 208.122ZM252 125.5C252 126.648 251.542 127.748 250.727 128.56C249.913 129.372 248.807 129.828 247.655 129.828H225.931C224.779 129.828 223.674 129.372 222.859 128.56C222.044 127.748 221.586 126.648 221.586 125.5C221.586 124.352 222.044 123.252 222.859 122.44C223.674 121.628 224.779 121.172 225.931 121.172H247.655C248.807 121.172 249.913 121.628 250.727 122.44C251.542 123.252 252 124.352 252 125.5ZM215.095 36.7581C215.91 37.5696 216.368 38.6704 216.368 39.8181C216.368 40.9658 215.91 42.0665 215.095 42.8781L199.734 58.1783C198.919 58.988 197.815 59.4424 196.663 59.4416C195.512 59.4409 194.408 58.9851 193.594 58.1744C192.78 57.3637 192.322 56.2643 192.322 55.1177C192.321 53.971 192.777 52.8709 193.589 52.0589L208.951 36.7581C209.765 35.9465 210.871 35.4906 212.023 35.4906C213.175 35.4906 214.281 35.9465 215.095 36.7581Z" fill="#22C1C3"/>
<path d="M126.543 134.25C130.517 134.25 133.739 131.004 133.739 127C133.739 122.996 130.517 119.75 126.543 119.75C122.569 119.75 119.347 122.996 119.347 127C119.347 131.004 122.569 134.25 126.543 134.25Z" stroke="#166061" stroke-width="5.27" stroke-linecap="round" stroke-linejoin="round"/>
<path d="M126.543 90.75C119.427 90.75 112.47 92.8761 106.553 96.8593C100.636 100.842 96.0247 106.504 93.3014 113.128C90.5781 119.752 89.8656 127.04 91.2539 134.072C92.6422 141.104 96.069 147.563 101.101 152.633C106.133 157.702 112.544 161.155 119.524 162.554C126.503 163.952 133.738 163.234 140.312 160.491C146.887 157.747 152.506 153.101 156.46 147.139C160.413 141.178 162.524 134.17 162.524 127" stroke="#166061" stroke-width="5.27" stroke-linecap="round" stroke-linejoin="round"/>
<path d="M133.768 62.1488C120.427 60.6409 106.951 63.3471 95.2027 69.893C83.4549 76.439 74.0165 86.5012 68.1931 98.6878C62.3697 110.874 60.449 124.583 62.6968 137.917C64.9447 151.252 71.2499 163.553 80.7403 173.119C90.2306 182.685 102.437 189.044 115.671 191.315C128.905 193.587 142.513 191.659 154.612 185.798C166.711 179.937 176.703 170.433 183.206 158.6C189.71 146.768 192.403 133.192 190.913 119.75" stroke="#22C1C3" stroke-width="5.27" stroke-linecap="round" stroke-linejoin="round"/>
<path d="M148.132 83.5V105.25H169.72L191.308 83.5H169.72V61.75L148.132 83.5Z" stroke="#166061" stroke-width="5.27" stroke-linecap="round" stroke-linejoin="round"/>
<path d="M148.131 105.25L126.543 127" stroke="#166061" stroke-width="5.27" stroke-linecap="round" stroke-linejoin="round"/>
</svg>
